<svg xmlns="http://www.w3.org/2000/svg" viewBox="0 0 461 534.84"><defs><style>.cls-1{fill:#782b8a;}.cls-2{fill:#040404;}</style></defs><g id="Layer_2" data-name="Layer 2"><g id="Layer_1-2" data-name="Layer 1"><path class="cls-1" d="M461,0c-2.86,5-5.43,10.26-8.63,15.07-18.25,27.43-36.68,54.75-55,82.13q-62.44,93.3-124.82,186.64c-1.88,2.81-3.43,5.83-5.13,8.75-.54.34-1.27.55-1.59,1-6.43,9.42-13,18.76-19.08,28.38-1.7,2.68-3.48,3.44-6.37,3.42-17.63-.08-35.26,0-52.88-.06-1.26,0-2.51-.23-3.9-.37,0-15.36,0-30.33,0-45.29a34.91,34.91,0,0,0-.81-5.22q.42-66.72.8-133.44c0-.25-.24-.5-.63-1.22-7.18,10.69-14.27,21.11-21.24,31.6q-50.06,75.34-100,150.78c-1.73,2.61-3.49,3.26-6.37,3.24-18.45-.12-36.89-.06-55.34-.06V0H68.85V184.13a114,114,0,0,0,10-13.55q49.4-74.12,98.76-148.26C182.5,15,187,7.45,191.59,0h62.86V183.15l1.08.56a17.06,17.06,0,0,1,.88-1.7q45.33-68.2,90.66-136.4Q362.19,22.84,377.19,0Z"/><path class="cls-2" d="M182.76,274.49a34.91,34.91,0,0,1,.81,5.22c.06,15,0,29.93,0,45.29,1.39.14,2.64.37,3.9.37,17.62,0,35.25,0,52.88.06,2.89,0,4.67-.74,6.37-3.42,6.12-9.62,12.65-19,19.08-28.38.32-.49,1.05-.7,1.59-1q-3.69,14.93-7.39,29.85c-.2.79-.38,1.58-.65,2.66,1.34.11,2.43.28,3.53.28,23.11,0,46.22-.05,69.33.08,3.2,0,4.49-.89,5.34-4.08,8.65-32.32,17.49-64.59,26.3-96.86,1.43-5.25,3-10.47,4.44-15.69h90.29q-44.31,163.23-88.49,326H279.87l36.6-136.33h-77Q221,466.42,202.38,534.84h-90c2.4-9.27,4.65-18.36,7.1-27.4q11.91-43.93,23.93-87.84,15.74-57.93,31.43-115.87Q178.76,289.11,182.76,274.49Z"/></g></g></svg>