<svg xmlns="http://www.w3.org/2000/svg" viewBox="0 0 634.05 326.29"><defs><style>.cls-1{fill:#7a128f;}.cls-2{fill:#fefefe;}.cls-3{fill:#e8e8e8;}.cls-4{fill:#171717;}</style></defs><g id="Layer_2" data-name="Layer 2"><g id="Layer_1-2" data-name="Layer 1"><g id="Layer_2-2" data-name="Layer 2"><g id="Layer_1-2-2" data-name="Layer 1-2"><path class="cls-1" d="M61,326.29H0V.29H70V184.77a115.25,115.25,0,0,0,10-13.66q49.48-74.22,99-148.46c4.87-7.31,9.33-14.9,14-22.36h63V184.83c1.18-1.38,1.63-1.82,2-2.32q45.62-68.44,91.2-136.91C359.15,30.54,369,15.39,379,.29h86L464,2.5c-.55.33-1.29.54-1.62,1-5.84,8.67-11.61,17.39-17.44,26.07Q416.44,72,388,114.5q-37.61,56.42-75,112.94a12.76,12.76,0,0,0-2,1.89q-32.52,48.45-65,96.94H185v-186a9.87,9.87,0,0,0-1.51,1.15l-93,139.9C80.58,296.24,70.8,311.28,61,326.29Z"/><path class="cls-2" d="M313,227.46l75-112.94c18.9-28.36,38-56.62,56.94-84.93,5.83-8.68,11.6-17.4,17.44-26.07.33-.48,1.07-.69,1.62-1a19.67,19.67,0,0,1-.25,3.91Q452.91,46.33,442,86.24c-2.78,10.21-5.49,20.43-8.35,31.05h5c22.65,0,45.3-.09,68,.09,3.64,0,5.1-1,6.06-4.6,5.77-21.65,11.91-43.2,17.78-64.83C534.74,32.09,538.8,16.18,543,.29h2a36.49,36.49,0,0,0,5.69.93c25.09.07,50.18,0,75.27,0h5.32c-.19,3-.34,5.49-.49,8-.11.67-.23,1.33-.35,2-.53,1.67-1.07,3.34-1.6,5l-.33,2-.61,2-1.41,5-.63,2a9.56,9.56,0,0,1-.12,2L588.9,164.34c-7,25.94-13.74,52-20.77,77.92-7.6,28-15.41,56-23.13,84H455Q468.37,276,481.79,225.72c3.12-11.65,6.29-23.3,9.5-35.16H413.72c-4.74,17.53-9.41,34.82-14.09,52.12Q388.3,284.49,377,326.29H287q9.78-36.42,19.54-72.85C308.79,244.82,310.82,236.12,313,227.46Z"/><path class="cls-3" d="M634,2.29l-3.21,7c.15-2.49.3-5,.49-8H550.69a35.49,35.49,0,0,1-5.69-1q42.75,0,85.5.07C631.68.37,634.43-1.24,634,2.29Z"/><path class="cls-4" d="M630.4,11.24c-.53,1.67-1.07,3.34-1.6,5C629.33,14.58,629.87,12.91,630.4,11.24Z"/><path class="cls-4" d="M628.47,18.24l-.61,2Z"/><path class="cls-4" d="M626.45,25.24l-.63,2Z"/></g></g></g></g></svg>