<svg xmlns="http://www.w3.org/2000/svg" viewBox="0 0 1859 425.02"><defs><style>.cls-1{fill:#7a128f;}.cls-2{fill:#fefefe;}.cls-3{fill:#fdfdfd;}</style></defs><g id="Layer_2" data-name="Layer 2"><g id="Layer_1-2" data-name="Layer 1"><g id="Layer_2-2" data-name="Layer 2"><g id="Layer_1-2-2" data-name="Layer 1-2"><path class="cls-1" d="M464,0c-4.33,6.7-8.57,13.45-13,20.09q-27.92,41.76-55.9,83.46Q331,199.46,266.84,295.39q-9.3,13.89-18.93,27.58c-.92,1.31-2.65,2.88-4,2.9-19.46.19-38.92.13-58.86.13V139.06c-7.91,11.75-15,22.19-22,32.71q-50.15,75.47-100.18,151c-1.71,2.6-3.46,3.29-6.37,3.27-18.84-.1-37.67,0-56.5,0V0H70V184.48a116.94,116.94,0,0,0,10.07-13.66Q129.56,96.6,179,22.36c4.87-7.31,9.32-14.9,14-22.36h63V184.54c1.18-1.38,1.63-1.81,2-2.32q45.63-68.44,91.21-136.91C359.18,30.25,369.06,15.1,379,0Z"/><path class="cls-2" d="M926,0c-2.53,10-4.92,19.93-7.61,29.84q-13.5,49.81-27.15,99.58c-5.4,19.88-10.7,39.79-16.1,59.67q-18.66,68.73-37.45,137.65h-90c12.19-45.4,24.35-90.69,36.63-136.39H706.74q-18.53,68.11-37.13,136.46H579.68c3.26-12.3,6.39-24.34,9.65-36.34q10.75-39.72,21.62-79.4,10.39-38.19,20.73-76.4,13.56-50,27.11-100C661.91,23.09,664.93,11.54,668,0h90a7.44,7.44,0,0,1,0,2L735,86.06c-2.77,10.17-5.46,20.36-8.29,30.94,24.75,0,48.87-.09,73,.1,3.71,0,5.06-1.12,6-4.66,5.77-21.64,11.91-43.19,17.77-64.81C827.78,31.79,831.84,15.88,836,0Z"/><path class="cls-2" d="M1434,425c-6.86-1.37-13.79-2.49-20.57-4.15-18-4.41-34.69-11.47-47.84-25.13s-17.73-30.25-14.91-49.2h80.65c3.8,13.79,12.07,19.69,27.91,20,29.53.51,48.57-13.55,58.7-43.54,2.42-7.19,4.44-14.51,7-23.07-6,4-10.88,7.31-15.81,10.46-23.2,14.84-48.42,19.46-75.45,14.84-31.72-5.42-53.75-29.1-57-61.07-3.18-30.87,6.16-58.48,22.46-84,17.95-28.08,42.27-48.93,73.74-60.68,19.5-7.28,39.69-9.82,60.28-5.6,13.75,2.82,24.94,9.73,31.84,22.49.47.87,1,1.72,1.54,2.54.17.25.52.38,1.07.76,1.93-7,3.82-13.93,5.77-21H1646c-4,14.6-7.82,28.8-11.61,43-7.9,29.64-15.56,59.34-23.67,88.91-7,25.55-13.51,51.3-22,76.36-9.62,28.3-25.59,52.84-50.16,70.91-19.89,14.63-42.38,22.39-66.75,25.19-4.29.5-8.55,1.32-12.82,2Zm81.17-252.14c-31.05,0-57.94,25-60.88,56.65-1.16,12.51,2.25,23.79,14.07,30.19,15.52,8.4,31.6,6.74,47-.32,21.05-9.67,32.07-27.1,35.23-49.62,2.06-14.63-5.47-27.84-19-33.24C1526.41,174.48,1520.64,174,1515.17,172.86Z"/><path class="cls-3" d="M1859,204a23.63,23.63,0,0,0-1.81,4.12c-1.64,7-3.3,13.93-4.62,20.95-.64,3.43-2,4.57-5.62,4.5-12.16-.25-24.32-.1-36.49-.1-34.49,0-69,.07-103.47-.09-3.94,0-5.5,1.06-6.14,5-1.24,7.66-2,15.21.8,22.65,3.84,10.1,12.25,14.19,22,15.79,18.41,3,34.7-1.06,47.63-15.41a6.4,6.4,0,0,1,4.23-2c21.49-.11,43-.05,64.47,0,.27,0,.53.28,1.57.88-3.37,5.26-6.4,10.75-10.13,15.71-21.08,28-49.7,43.62-83.75,49.89a145.25,145.25,0,0,1-62.38-1.93c-38.51-9.67-59.85-39.47-55.49-79,5.34-48.37,28.09-86.39,70.51-111.15,32.11-18.75,67.06-23.63,103.27-15.74,29.37,6.39,48.3,24.2,53.9,54.63A14.74,14.74,0,0,0,1859,176Zm-63.39-11.87c2.43-13.7-7-26.81-21.88-30-15.13-3.24-29.08.48-41.66,9.09a49.23,49.23,0,0,0-17.53,20.9Z"/><path class="cls-3" d="M1313.75,135.44l25.38-96.39h72.11c-3.3,12.48-6.5,24.68-9.74,36.87q-23.76,89.31-47.53,178.61c-5.57,20.91-11.21,41.82-16.74,62.74-.6,2.25-1,3.87-4,3.85-22.49-.14-45-.09-67.48-.13a5.65,5.65,0,0,1-1.38-.48l5.1-20.27-.85-.39c-1.29,1.22-2.61,2.42-3.88,3.66-25.54,25.1-73.5,32-104.77,14.67-24.65-13.64-35.43-35.91-36.71-63-1.52-32.34,9.68-60.85,29-86.27,20.67-27.25,47-46.66,80.8-54.27,20-4.5,40.26-4.92,59,4.84C1299.8,123.49,1306.34,129.88,1313.75,135.44Zm-78.27,130.27c28.46-.57,52.12-19.82,58.63-48.42,4.7-20.62-3-43.2-35.21-42.92-28.92.26-53.66,22.24-58.54,50.67-3.33,19.41,4.13,33.28,20.94,38.22,4.57,1.35,9.44,1.66,14.18,2.45Z"/><path class="cls-3" d="M563.72,259.32a115.25,115.25,0,0,1-31.51,38.81c-24.51,19.35-52.59,28.86-83.65,29.93-20.54.71-40.54-1.59-59.23-10.92-25-12.45-37.69-33.18-37.85-60.53-.38-64.84,46.39-131,124.34-140.62a148.43,148.43,0,0,1,44.78.89c40.17,7.24,62.87,35.83,59.88,76.59-.9,12.36-4.23,24.53-6.24,36.82-.61,3.76-3.1,3.18-5.55,3.18h-112c-9.5,0-19,.15-28.5-.08-3.37-.08-4.89,1-5.17,4.32-.37,4.3-1.32,8.59-1.28,12.88.15,13.37,6.84,22.19,19.82,25.29,19.69,4.7,37.33,1.17,51.58-14.3a6.62,6.62,0,0,1,4.17-2.17C519.12,259.28,540.91,259.32,563.72,259.32ZM436.78,192h80.89c2.24-13.8-7.17-26.48-22-30C473.34,156.78,446.33,170.33,436.78,192Z"/><path class="cls-3" d="M1099.72,259.32a114.84,114.84,0,0,1-31.48,38.78c-24.5,19.35-52.57,28.88-83.64,30-20.54.72-40.54-1.58-59.23-10.9-25-12.44-37.72-33.15-37.89-60.51-.41-64.78,46.29-131,124.3-140.63,18.82-2.32,37.64-2.19,55.92,3.62,33.73,10.72,51.41,36.85,48.83,73.29-.89,12.53-4.26,24.86-6.28,37.32-.6,3.73-3,3.23-5.52,3.23-46.33,0-92.65.06-139-.11-4.49,0-6.37,1.08-7,5.76-1.13,7.87-1.83,15.55,1.42,23.06,3.76,8.69,11.16,12.6,19.83,14.28,18.92,3.66,35.7-.16,49.18-14.86a6.59,6.59,0,0,1,4.15-2.2C1055.08,259.28,1076.88,259.32,1099.72,259.32Zm-46.16-67.23c2.71-13.55-7-27.05-22.23-30-16.86-3.29-31.93,1.35-45.1,12.17a48.54,48.54,0,0,0-13.7,17.84Z"/></g></g></g></g></svg>